# xmcd CD database file
#
# Track frame offsets:
#	150
#	8004
#	34361
#	55518
#	84041
#	106510
#	131348
#	151884
#	166372
#	174764
#	193766
#	223592
#	234360
#	252490
#	288889
#	318460
#
# Disc length: 4326 seconds
#
# Revision: 1
# Processed by: cddbd v1.5.1PL2 Copyright (c) Steve Scherf et al.
# Submitted via: CDex 1.51
#
DISCID=bf10e410
DTITLE=Seven Steps - Harbour Lights
DYEAR=2004
DGENRE=Jazz
TTITLE0=Intro
TTITLE1=Harbour Lights
TTITLE2=Go Ahead
TTITLE3=Rain
TTITLE4=Smooth Vibrations
TTITLE5=Under Construction
TTITLE6=On The Corner
TTITLE7=Busy Days
TTITLE8=Smooth Vibrations (Reprise)
TTITLE9=Doin' Da Hot Stuff
TTITLE10=Breeze
TTITLE11=Here (Interlude)
TTITLE12=Half Past Late
TTITLE13=Dusk
TTITLE14=Future Vision
TTITLE15=Outro
EXTD=YEAR: 2004
EXTT0=
EXTT1=
EXTT2=
EXTT3=
EXTT4=
EXTT5=
EXTT6=
EXTT7=
EXTT8=
EXTT9=
EXTT10=
EXTT11=
EXTT12=
EXTT13=
EXTT14=
EXTT15=
PLAYORDER=
